<svg xmlns="http://www.w3.org/2000/svg" xmlns:xlink="http://www.w3.org/1999/xlink" width="500" zoomAndPan="magnify" viewBox="0 0 375 374.999991" height="500" preserveAspectRatio="xMidYMid meet" version="1.0"><path d="M 187.5 0 C 84.105469 0 0 84.105469 0 187.5 C 0 290.894531 84.105469 375 187.5 375 C 290.894531 375 375 290.894531 375 187.5 C 375 84.105469 290.894531 0 187.5 0 Z M 362.152344 187.5 C 362.152344 283.804688 283.804688 362.152344 187.5 362.152344 C 91.195312 362.152344 12.847656 283.804688 12.847656 187.5 C 12.847656 91.195312 91.195312 12.847656 187.5 12.847656 C 283.804688 12.847656 362.152344 91.195312 362.152344 187.5 Z M 362.152344 187.5 " fill-opacity="1" fill-rule="nonzero"/><path d="M 77.949219 141.109375 C 79.714844 136.792969 82.917969 134.992188 87.523438 135.390625 C 89.144531 135.53125 90.800781 135.425781 92.632812 135.425781 C 92.632812 150.25 92.632812 165.007812 92.632812 179.871094 C 89.71875 179.871094 86.804688 180.050781 83.925781 179.835938 C 80.792969 179.582031 79.320312 177.097656 77.949219 174.617188 C 77.949219 163.421875 77.949219 152.265625 77.949219 141.109375 Z M 77.949219 141.109375 " fill-opacity="1" fill-rule="nonzero"/><path  d="M 297.050781 174.582031 C 296.363281 175.625 295.898438 176.957031 294.960938 177.640625 C 293.523438 178.648438 291.832031 179.582031 290.140625 179.835938 C 287.621094 180.195312 284.992188 179.941406 282.292969 179.941406 C 282.292969 165.042969 282.292969 150.324219 282.292969 135.496094 C 285.171875 135.496094 287.945312 135.28125 290.679688 135.570312 C 293.988281 135.890625 295.789062 138.304688 297.050781 141.148438 C 297.050781 152.265625 297.050781 163.421875 297.050781 174.582031 Z M 297.050781 174.582031 " fill-opacity="1" fill-rule="nonzero"/><path  d="M 112.933594 269.375 C 107.714844 269.121094 103.71875 267.140625 100.804688 263.148438 C 98.609375 260.160156 97.960938 256.742188 97.960938 253.105469 C 97.960938 223.992188 97.960938 194.914062 97.960938 165.800781 C 97.960938 151.152344 98.03125 136.503906 97.960938 121.855469 C 97.886719 110.738281 101.054688 100.660156 108.179688 92.128906 C 116.421875 82.304688 127.039062 76.511719 139.921875 76.152344 C 153.347656 75.753906 166.804688 76.007812 180.230469 76.007812 C 197.144531 76.007812 214.09375 76.078125 231.011719 75.972656 C 238.785156 75.9375 246.125 77.484375 252.964844 81.152344 C 260.699219 85.328125 266.78125 91.339844 271.027344 99.113281 C 274.878906 106.164062 276.535156 113.757812 276.5 121.75 C 276.5 165.113281 276.355469 208.480469 276.609375 251.847656 C 276.644531 261.527344 271.425781 268.796875 261.527344 269.445312 C 261.527344 273.980469 261.601562 278.515625 261.492188 283.085938 C 261.457031 285.101562 261.203125 287.152344 260.699219 289.058594 C 259.226562 294.386719 253.972656 298.667969 248.429688 298.882812 C 242.347656 299.101562 236.265625 299.136719 230.183594 298.882812 C 223.523438 298.597656 217.730469 292.765625 217.261719 286.109375 C 216.9375 281.429688 217.082031 276.75 217.046875 272.035156 C 217.046875 271.210938 217.046875 270.417969 217.046875 269.445312 C 197.179688 269.445312 177.421875 269.445312 157.449219 269.445312 C 157.449219 274.050781 157.558594 278.585938 157.414062 283.121094 C 157.339844 285.171875 157.054688 287.296875 156.476562 289.277344 C 154.894531 294.53125 149.710938 298.703125 144.242188 298.882812 C 138.160156 299.101562 132.078125 299.136719 125.996094 298.882812 C 119.300781 298.597656 113.4375 292.550781 113.113281 285.855469 C 112.894531 281.105469 113.003906 276.355469 112.96875 271.605469 C 112.933594 270.921875 112.933594 270.203125 112.933594 269.375 Z M 261.707031 120.707031 C 211.972656 120.707031 162.378906 120.707031 112.859375 120.707031 C 112.859375 150.503906 112.859375 180.160156 112.859375 209.8125 C 162.558594 209.8125 212.082031 209.8125 261.707031 209.8125 C 261.707031 180.050781 261.707031 150.46875 261.707031 120.707031 Z M 157.628906 90.800781 C 157.628906 95.800781 157.628906 100.695312 157.628906 105.625 C 177.460938 105.625 197.144531 105.625 216.902344 105.625 C 216.902344 100.625 216.902344 95.765625 216.902344 90.800781 C 197.035156 90.800781 177.351562 90.800781 157.628906 90.800781 Z M 112.859375 239.972656 C 113.253906 248.355469 120.09375 254.796875 128.261719 254.4375 C 136.394531 254.078125 142.875 247.167969 142.585938 239.25 C 142.261719 230.867188 135.351562 224.386719 127.183594 224.785156 C 118.941406 225.214844 112.5 232.019531 112.859375 239.972656 Z M 246.808594 254.472656 C 254.941406 254.4375 261.636719 247.78125 261.636719 239.609375 C 261.671875 231.476562 254.941406 224.785156 246.738281 224.820312 C 238.53125 224.855469 231.835938 231.550781 231.875 239.683594 C 231.945312 247.78125 238.675781 254.472656 246.808594 254.472656 Z M 246.808594 254.472656 " fill-opacity="1" fill-rule="nonzero"/></svg>
