<svg xmlns="http://www.w3.org/2000/svg" xmlns:xlink="http://www.w3.org/1999/xlink" width="500" zoomAndPan="magnify" viewBox="0 0 375 374.999991" height="500" preserveAspectRatio="xMidYMid meet" version="1.0"><path d="M 187.890625 93.339844 L 292.546875 202.445312 L 312.628906 202.445312 L 274.175781 160.6875 L 274.175781 67.429688 L 222.039062 67.429688 L 222.039062 104.074219 L 188.828125 68.011719 C 188.117188 67.234375 186.882812 67.234375 186.171875 68.011719 L 62.371094 202.445312 L 83.222656 202.445312 L 187.890625 93.339844 " fill-opacity="1" fill-rule="nonzero"/><path d="M 187.890625 110.355469 L 89.503906 208.730469 L 89.503906 307.570312 L 149.917969 307.570312 L 149.917969 210.160156 L 225.082031 210.160156 L 225.082031 307.570312 L 285.496094 307.570312 L 285.496094 207.960938 L 187.890625 110.355469 " fill-opacity="1" fill-rule="nonzero"/><path d="M 187.5 361.140625 C 91.597656 361.140625 13.859375 283.402344 13.859375 187.5 C 13.859375 91.597656 91.597656 13.859375 187.5 13.859375 C 283.402344 13.859375 361.140625 91.597656 361.140625 187.5 C 361.140625 283.402344 283.402344 361.140625 187.5 361.140625 Z M 187.5 -0.0117188 C 83.941406 -0.0117188 -0.0117188 83.941406 -0.0117188 187.5 C -0.0117188 291.058594 83.941406 375.011719 187.5 375.011719 C 291.058594 375.011719 375.011719 291.058594 375.011719 187.5 C 375.011719 83.941406 291.058594 -0.0117188 187.5 -0.0117188 " fill-opacity="1" fill-rule="nonzero"/></svg>
