<svg xmlns="http://www.w3.org/2000/svg" xmlns:xlink="http://www.w3.org/1999/xlink" width="500" zoomAndPan="magnify" viewBox="0 0 375 374.999991" height="500" preserveAspectRatio="xMidYMid meet" version="1.0"><defs><clipPath id="05956e1424"><path d="M 166 360 L 209 360 L 209 374.25 L 166 374.25 Z M 166 360 " clip-rule="nonzero"/></clipPath><clipPath id="4742f1b78b"><path d="M 124 332 L 167 332 L 167 374.25 L 124 374.25 Z M 124 332 " clip-rule="nonzero"/></clipPath><clipPath id="39b14511cc"><path d="M 304 346 L 333 346 L 333 374.25 L 304 374.25 Z M 304 346 " clip-rule="nonzero"/></clipPath><clipPath id="5204b910cd"><path d="M 360.054688 332 L 374.816406 332 L 374.816406 346.382812 L 360.054688 346.382812 Z M 360.054688 332 " clip-rule="nonzero"/></clipPath><clipPath id="30d3cfd6dd"><path d="M 360.804688 124.1875 L 374.816406 124.1875 L 374.816406 138.402344 L 360.804688 138.402344 Z M 360.804688 124.1875 " clip-rule="nonzero"/></clipPath></defs><path fill="#606060" d="M 82.609375 27.921875 L 28.128906 27.921875 L 28.128906 82.402344 L 82.609375 82.402344 L 82.609375 27.921875 " fill-opacity="1" fill-rule="nonzero"/><path fill="#606060" d="M 96.570312 96.363281 L 14.167969 96.363281 L 14.167969 13.960938 L 96.570312 13.960938 Z M 110.527344 0 L 0.207031 0 L 0.207031 110.320312 L 110.527344 110.320312 L 110.527344 0 " fill-opacity="1" fill-rule="nonzero"/><path fill="#606060" d="M 346.277344 27.921875 L 291.792969 27.921875 L 291.792969 82.402344 L 346.277344 82.402344 L 346.277344 27.921875 " fill-opacity="1" fill-rule="nonzero"/><path fill="#606060" d="M 360.234375 96.363281 L 277.835938 96.363281 L 277.835938 13.960938 L 360.234375 13.960938 Z M 374.195312 0 L 263.875 0 L 263.875 110.320312 L 374.195312 110.320312 L 374.195312 0 " fill-opacity="1" fill-rule="nonzero"/><path fill="#606060" d="M 28.128906 346.070312 L 82.613281 346.070312 L 82.613281 291.585938 L 28.128906 291.585938 L 28.128906 346.070312 " fill-opacity="1" fill-rule="nonzero"/><path fill="#606060" d="M 14.167969 277.628906 L 96.570312 277.628906 L 96.570312 360.027344 L 14.167969 360.027344 Z M 0.207031 373.988281 L 110.527344 373.988281 L 110.527344 263.667969 L 0.207031 263.667969 L 0.207031 373.988281 " fill-opacity="1" fill-rule="nonzero"/><path fill="#606060" d="M 166.453125 41.828125 L 166.453125 54.480469 L 180.417969 54.480469 L 180.417969 41.828125 L 194.160156 41.828125 L 194.160156 69.726562 L 180.234375 69.726562 L 180.234375 69.75 L 166.300781 69.75 L 166.300781 82.402344 L 152.367188 82.402344 L 152.367188 54.480469 L 138.410156 54.480469 L 138.410156 41.828125 Z M 208.09375 96.363281 L 180.234375 96.363281 L 180.234375 83.683594 L 194.171875 83.683594 L 194.171875 69.75 L 208.09375 69.75 Z M 124.449219 138.246094 L 82.609375 138.246094 L 82.609375 152.207031 L 124.453125 152.207031 L 124.453125 166.164062 L 138.386719 166.164062 L 138.386719 207.9375 L 152.347656 207.9375 L 152.347656 152.207031 L 180.234375 152.207031 L 180.234375 138.246094 L 138.410156 138.246094 L 138.410156 82.402344 L 152.367188 82.402344 L 152.367188 96.363281 L 166.300781 96.363281 L 166.300781 110.320312 L 152.367188 110.320312 L 152.367188 138.246094 L 166.300781 138.246094 L 166.300781 110.320312 L 180.234375 110.320312 L 180.234375 110.296875 L 208.09375 110.296875 L 208.09375 138.273438 L 194.171875 138.273438 L 194.171875 152.207031 L 222.304688 152.207031 L 222.304688 178.8125 L 236.238281 178.8125 L 236.238281 138.246094 L 222.304688 138.246094 L 222.304688 138.273438 L 222.050781 138.273438 L 222.050781 55.789062 L 236 55.789062 L 236 69.726562 L 249.964844 69.726562 L 249.964844 41.855469 L 248.742188 41.855469 L 248.742188 41.828125 L 222.050781 41.828125 L 222.050781 27.921875 L 138.410156 27.921875 L 138.410156 13.960938 L 208.101562 13.960938 L 208.101562 0 L 124.5 0 L 124.5 13.957031 L 124.449219 13.957031 L 124.449219 138.246094 " fill-opacity="1" fill-rule="nonzero"/><path fill="#606060" d="M 249.949219 27.921875 L 249.949219 0 L 236.015625 0 L 236.015625 13.988281 L 222.050781 13.988281 L 222.050781 27.921875 L 249.949219 27.921875 " fill-opacity="1" fill-rule="nonzero"/><path fill="#606060" d="M 14.167969 166.167969 L 0.207031 166.167969 L 0.207031 180.132812 L 14.167969 180.132812 L 14.167969 207.9375 L 54.714844 207.9375 L 54.714844 221.898438 L 14.167969 221.898438 L 14.167969 235.859375 L 56.019531 235.859375 L 56.019531 249.824219 L 96.570312 249.824219 L 96.570312 235.859375 L 68.648438 235.859375 L 68.648438 193.976562 L 28.101562 193.976562 L 28.101562 180.132812 L 68.648438 180.132812 L 68.648438 166.167969 L 82.609375 166.167969 L 82.609375 152.207031 L 14.167969 152.207031 L 14.167969 166.167969 " fill-opacity="1" fill-rule="nonzero"/><path fill="#606060" d="M 14.140625 138.246094 L 0.207031 138.246094 L 0.207031 152.207031 L 14.140625 152.207031 L 14.140625 138.246094 " fill-opacity="1" fill-rule="nonzero"/><path fill="#606060" d="M 110.527344 235.859375 L 124.460938 235.859375 L 124.460938 207.9375 L 96.59375 207.9375 L 96.59375 221.898438 L 110.527344 221.898438 L 110.527344 235.859375 " fill-opacity="1" fill-rule="nonzero"/><path fill="#606060" d="M 14.167969 124.285156 L 14.167969 138.246094 L 28.101562 138.246094 L 28.101562 124.285156 L 14.167969 124.285156 " fill-opacity="1" fill-rule="nonzero"/><path fill="#606060" d="M 68.648438 124.285156 L 68.648438 138.246094 L 82.582031 138.246094 L 82.582031 124.285156 L 68.648438 124.285156 " fill-opacity="1" fill-rule="nonzero"/><path fill="#606060" d="M 194.171875 124.285156 L 180.234375 124.285156 L 180.234375 138.246094 L 194.171875 138.246094 L 194.171875 124.285156 " fill-opacity="1" fill-rule="nonzero"/><path fill="#606060" d="M 222.304688 178.8125 L 208.339844 178.8125 L 208.339844 235.859375 L 222.304688 235.859375 L 222.304688 178.8125 " fill-opacity="1" fill-rule="nonzero"/><path fill="#606060" d="M 166.28125 221.898438 L 166.28125 208.003906 L 180.175781 208.003906 L 180.175781 194.039062 L 166.246094 194.039062 L 166.246094 207.9375 L 152.347656 207.9375 L 152.347656 221.898438 L 166.28125 221.898438 " fill-opacity="1" fill-rule="nonzero"/><path fill="#606060" d="M 166.289062 166.152344 L 166.289062 180.113281 L 180.222656 180.113281 L 180.222656 194.078125 L 194.15625 194.078125 L 194.15625 166.152344 L 166.289062 166.152344 " fill-opacity="1" fill-rule="nonzero"/><path fill="#606060" d="M 124.460938 180.136719 L 96.589844 180.136719 L 96.589844 166.175781 L 82.65625 166.175781 L 82.65625 194.097656 L 124.460938 194.097656 L 124.460938 180.136719 " fill-opacity="1" fill-rule="nonzero"/><path fill="#606060" d="M 82.582031 221.898438 L 82.582031 207.9375 L 68.648438 207.9375 L 68.648438 221.898438 L 82.582031 221.898438 " fill-opacity="1" fill-rule="nonzero"/><path fill="#606060" d="M 290.714844 192.777344 L 290.714844 206.738281 L 304.648438 206.738281 L 304.648438 192.777344 L 318.582031 192.777344 L 318.582031 178.8125 L 304.648438 178.8125 L 304.648438 164.851562 L 290.714844 164.851562 L 290.714844 178.8125 L 304.648438 178.8125 L 304.648438 192.777344 L 290.714844 192.777344 " fill-opacity="1" fill-rule="nonzero"/><path fill="#606060" d="M 250.050781 291.597656 L 236.089844 291.597656 L 236.089844 319.464844 L 237.3125 319.464844 L 237.3125 319.492188 L 264 319.492188 L 264 305.53125 L 250.050781 305.53125 L 250.050781 291.597656 " fill-opacity="1" fill-rule="nonzero"/><path fill="#606060" d="M 236.257812 235.859375 L 222.324219 235.859375 L 222.324219 249.824219 L 236.257812 249.824219 L 236.257812 263.785156 L 250.191406 263.785156 L 250.191406 235.859375 L 236.257812 235.859375 " fill-opacity="1" fill-rule="nonzero"/><path fill="#606060" d="M 194.152344 305.539062 L 180.21875 305.539062 L 180.21875 319.503906 L 208.085938 319.503906 L 208.085938 318.277344 L 208.113281 318.277344 L 208.113281 291.589844 L 194.152344 291.589844 L 194.152344 305.539062 " fill-opacity="1" fill-rule="nonzero"/><g clip-path="url(#05956e1424)"><path fill="#606060" d="M 166.300781 374.046875 L 208.152344 374.046875 L 208.152344 360.085938 L 166.300781 360.085938 L 166.300781 374.046875 " fill-opacity="1" fill-rule="nonzero"/></g><g clip-path="url(#4742f1b78b)"><path fill="#606060" d="M 152.347656 346.070312 L 152.347656 346.128906 L 138.386719 346.128906 L 138.386719 360.074219 L 124.453125 360.074219 L 124.453125 374.039062 L 152.320312 374.039062 L 152.320312 372.816406 L 152.347656 372.816406 L 152.347656 360.03125 L 166.28125 360.03125 L 166.28125 332.109375 L 152.347656 332.109375 L 152.347656 346.070312 " fill-opacity="1" fill-rule="nonzero"/></g><path fill="#606060" d="M 124.453125 332.167969 L 124.453125 346.128906 L 138.386719 346.128906 L 138.386719 332.167969 L 124.453125 332.167969 " fill-opacity="1" fill-rule="nonzero"/><path fill="#606060" d="M 236.257812 110.308594 L 250.191406 110.308594 L 250.191406 83.683594 L 236.257812 83.683594 L 236.257812 110.308594 " fill-opacity="1" fill-rule="nonzero"/><path fill="#606060" d="M 194.125 207.984375 L 180.1875 207.984375 L 180.1875 221.945312 L 194.125 221.945312 L 194.125 207.984375 " fill-opacity="1" fill-rule="nonzero"/><path fill="#606060" d="M 374.214844 290.390625 L 360.253906 290.390625 L 360.253906 276.550781 L 360.25 276.550781 L 360.25 262.585938 L 319.707031 262.585938 L 319.707031 248.621094 L 360.25 248.621094 L 360.25 234.664062 L 318.640625 234.664062 L 318.640625 220.699219 L 332.574219 220.699219 L 332.574219 206.738281 L 318.640625 206.738281 L 318.640625 220.699219 L 290.714844 220.699219 L 290.714844 178.8125 L 277.1875 178.8125 L 277.1875 166.164062 L 263.257812 166.164062 L 263.257812 178.8125 L 236.238281 178.8125 L 236.238281 192.777344 L 276.785156 192.777344 L 276.785156 206.738281 L 236.238281 206.738281 L 236.238281 220.699219 L 250.191406 220.699219 L 250.191406 235.859375 L 264.125 235.859375 L 264.125 220.699219 L 278.089844 220.699219 L 278.089844 234.664062 L 305.773438 234.664062 L 305.773438 276.550781 L 346.320312 276.550781 L 346.320312 290.390625 L 305.773438 290.390625 L 305.773438 304.351562 L 277.851562 304.351562 L 277.851562 318.316406 L 346.292969 318.316406 L 346.292969 304.351562 L 374.214844 304.351562 L 374.214844 290.390625 " fill-opacity="1" fill-rule="nonzero"/><path fill="#606060" d="M 236.046875 359.988281 L 222.167969 359.988281 L 222.167969 347.394531 L 223.316406 347.394531 L 223.316406 347.425781 L 249.757812 347.425781 L 249.757812 359.988281 Z M 250 333.460938 L 236.054688 333.460938 L 236.054688 319.527344 L 222.167969 319.527344 L 222.167969 319.515625 L 208.234375 319.515625 L 208.234375 333.476562 L 222.09375 333.476562 L 222.09375 346.070312 L 208.234375 346.070312 L 208.234375 360.027344 L 222.15625 360.027344 L 222.15625 373.949219 L 249.980469 373.949219 L 249.980469 360.242188 L 263.691406 360.242188 L 263.691406 346.28125 L 250 346.28125 L 250 333.460938 " fill-opacity="1" fill-rule="nonzero"/><path fill="#606060" d="M 194.195312 346.113281 L 194.195312 332.148438 L 180.257812 332.148438 L 180.257812 346.113281 L 194.195312 346.113281 " fill-opacity="1" fill-rule="nonzero"/><g clip-path="url(#39b14511cc)"><path fill="#606060" d="M 318.582031 360.074219 L 304.648438 360.074219 L 304.648438 374.039062 L 332.519531 374.039062 L 332.519531 372.816406 L 332.546875 372.816406 L 332.546875 346.128906 L 318.582031 346.128906 L 318.582031 360.074219 " fill-opacity="1" fill-rule="nonzero"/></g><g clip-path="url(#5204b910cd)"><path fill="#606060" d="M 360.457031 346.113281 L 374.390625 346.113281 L 374.390625 332.148438 L 360.457031 332.148438 L 360.457031 346.113281 " fill-opacity="1" fill-rule="nonzero"/></g><path fill="#606060" d="M 277.851562 346.113281 L 291.8125 346.113281 L 291.8125 332.148438 L 277.851562 332.148438 L 277.851562 346.113281 " fill-opacity="1" fill-rule="nonzero"/><path fill="#606060" d="M 360.882812 138.230469 L 332.96875 138.230469 L 332.96875 124.285156 L 319.035156 124.285156 L 319.035156 138.230469 L 292.238281 138.230469 L 292.238281 124.285156 L 278.304688 124.285156 L 278.304688 124.296875 L 236.238281 124.296875 L 236.238281 138.230469 L 263.257812 138.230469 L 263.257812 152.195312 L 332.574219 152.195312 L 332.574219 164.851562 L 346.503906 164.851562 L 346.503906 152.195312 L 360.882812 152.195312 L 360.882812 138.230469 " fill-opacity="1" fill-rule="nonzero"/><g clip-path="url(#30d3cfd6dd)"><path fill="#606060" d="M 360.882812 124.285156 L 360.882812 138.246094 L 374.816406 138.246094 L 374.816406 124.285156 L 360.882812 124.285156 " fill-opacity="1" fill-rule="nonzero"/></g><path fill="#606060" d="M 332.574219 220.699219 L 346.503906 220.699219 L 346.503906 206.738281 L 360.4375 206.738281 L 360.4375 192.777344 L 346.503906 192.777344 L 346.503906 206.738281 L 332.574219 206.738281 L 332.574219 220.699219 " fill-opacity="1" fill-rule="nonzero"/><path fill="#606060" d="M 346.503906 178.8125 L 332.574219 178.8125 L 332.574219 192.777344 L 346.503906 192.777344 L 346.503906 178.8125 " fill-opacity="1" fill-rule="nonzero"/><path fill="#606060" d="M 249.324219 152.207031 L 249.324219 166.164062 L 263.257812 166.164062 L 263.257812 152.207031 L 249.324219 152.207031 " fill-opacity="1" fill-rule="nonzero"/><path fill="#606060" d="M 291.8125 263.785156 L 291.8125 249.851562 L 263.890625 249.851562 L 263.890625 277.628906 L 236.21875 277.628906 L 236.21875 263.785156 L 222.28125 263.785156 L 222.28125 277.628906 L 208.113281 277.628906 L 208.113281 249.824219 L 194.152344 249.824219 L 194.152344 263.785156 L 166.28125 263.785156 L 166.28125 249.824219 L 180.21875 249.824219 L 180.21875 235.859375 L 152.34375 235.859375 L 152.34375 221.898438 L 138.410156 221.898438 L 138.410156 249.824219 L 152.347656 249.824219 L 152.347656 263.785156 L 124.511719 263.785156 L 124.511719 277.746094 L 138.402344 277.746094 L 138.402344 291.589844 L 152.335938 291.589844 L 152.335938 277.746094 L 166.246094 277.746094 L 166.246094 305.554688 L 138.398438 305.554688 L 138.398438 291.589844 L 124.464844 291.589844 L 124.464844 319.515625 L 166.273438 319.515625 L 166.273438 305.554688 L 180.175781 305.554688 L 180.175781 277.746094 L 208.113281 277.746094 L 208.113281 291.589844 L 263.980469 291.589844 L 263.980469 277.71875 L 277.851562 277.71875 L 277.851562 291.589844 L 291.8125 291.589844 L 291.8125 277.628906 L 277.851562 277.628906 L 277.851562 263.785156 L 291.8125 263.785156 " fill-opacity="1" fill-rule="nonzero"/></svg>