<svg xmlns="http://www.w3.org/2000/svg" xmlns:xlink="http://www.w3.org/1999/xlink" width="500" zoomAndPan="magnify" viewBox="0 0 375 374.999991" height="500" preserveAspectRatio="xMidYMid meet" version="1.0"><defs><clipPath id="773e26994d"><path d="M 294.105469 0 L 374.992188 0 L 374.992188 80.894531 L 294.105469 80.894531 Z M 294.105469 0 " clip-rule="nonzero"/></clipPath><clipPath id="befa81157a"><path d="M 294.105469 294.105469 L 374.992188 294.105469 L 374.992188 375 L 294.105469 375 Z M 294.105469 294.105469 " clip-rule="nonzero"/></clipPath></defs><path fill="#606060" d="M 124.953125 124.960938 L 53.742188 124.960938 L 53.742188 53.746094 L 124.953125 53.746094 Z M 40.074219 40.082031 L 40.074219 138.625 L 138.621094 138.625 L 138.621094 40.082031 Z M 110.0625 68.636719 L 68.632812 68.636719 L 68.632812 110.066406 L 110.0625 110.066406 L 110.0625 68.636719 " fill-opacity="1" fill-rule="nonzero"/><path fill="#606060" d="M 321.25 124.960938 L 250.039062 124.960938 L 250.039062 53.746094 L 321.25 53.746094 Z M 236.375 40.082031 L 236.375 138.625 L 334.917969 138.625 L 334.917969 40.082031 Z M 306.363281 68.636719 L 264.925781 68.636719 L 264.925781 110.066406 L 306.363281 110.066406 L 306.363281 68.636719 " fill-opacity="1" fill-rule="nonzero"/><path fill="#606060" d="M 124.953125 321.253906 L 53.742188 321.253906 L 53.742188 250.039062 L 124.953125 250.039062 Z M 40.074219 236.375 L 40.074219 334.917969 L 138.621094 334.917969 L 138.621094 236.375 Z M 110.0625 264.9375 L 68.632812 264.9375 L 68.632812 306.367188 L 110.0625 306.367188 L 110.0625 264.9375 " fill-opacity="1" fill-rule="nonzero"/><path fill="#606060" d="M 54.117188 166.441406 L 40.074219 166.441406 L 40.074219 152.398438 L 54.117188 152.398438 L 54.117188 166.441406 " fill-opacity="1" fill-rule="nonzero"/><path fill="#606060" d="M 68.15625 166.441406 L 54.117188 166.441406 L 54.117188 152.398438 L 68.15625 152.398438 L 68.15625 166.441406 " fill-opacity="1" fill-rule="nonzero"/><path fill="#606060" d="M 82.195312 166.441406 L 68.15625 166.441406 L 68.15625 152.398438 L 82.195312 152.398438 L 82.195312 166.441406 " fill-opacity="1" fill-rule="nonzero"/><path fill="#606060" d="M 110.273438 166.441406 L 96.234375 166.441406 L 96.234375 152.398438 L 110.273438 152.398438 L 110.273438 166.441406 " fill-opacity="1" fill-rule="nonzero"/><path fill="#606060" d="M 124.3125 166.441406 L 110.273438 166.441406 L 110.273438 152.398438 L 124.3125 152.398438 L 124.3125 166.441406 " fill-opacity="1" fill-rule="nonzero"/><path fill="#606060" d="M 138.355469 166.441406 L 124.3125 166.441406 L 124.3125 152.398438 L 138.355469 152.398438 L 138.355469 166.441406 " fill-opacity="1" fill-rule="nonzero"/><path fill="#606060" d="M 152.394531 166.441406 L 138.355469 166.441406 L 138.355469 152.398438 L 152.394531 152.398438 L 152.394531 166.441406 " fill-opacity="1" fill-rule="nonzero"/><path fill="#606060" d="M 166.433594 166.441406 L 152.394531 166.441406 L 152.394531 152.398438 L 166.433594 152.398438 L 166.433594 166.441406 " fill-opacity="1" fill-rule="nonzero"/><path fill="#606060" d="M 166.433594 180.480469 L 152.394531 180.480469 L 152.394531 166.441406 L 166.433594 166.441406 L 166.433594 180.480469 " fill-opacity="1" fill-rule="nonzero"/><path fill="#606060" d="M 152.394531 180.480469 L 138.355469 180.480469 L 138.355469 166.441406 L 152.394531 166.441406 L 152.394531 180.480469 " fill-opacity="1" fill-rule="nonzero"/><path fill="#606060" d="M 152.394531 194.519531 L 138.355469 194.519531 L 138.355469 180.480469 L 152.394531 180.480469 L 152.394531 194.519531 " fill-opacity="1" fill-rule="nonzero"/><path fill="#606060" d="M 138.355469 194.519531 L 124.3125 194.519531 L 124.3125 180.480469 L 138.355469 180.480469 L 138.355469 194.519531 " fill-opacity="1" fill-rule="nonzero"/><path fill="#606060" d="M 138.355469 208.558594 L 124.3125 208.558594 L 124.3125 194.519531 L 138.355469 194.519531 L 138.355469 208.558594 " fill-opacity="1" fill-rule="nonzero"/><path fill="#606060" d="M 166.433594 208.558594 L 152.394531 208.558594 L 152.394531 194.519531 L 166.433594 194.519531 L 166.433594 208.558594 " fill-opacity="1" fill-rule="nonzero"/><path fill="#606060" d="M 166.433594 236.636719 L 152.394531 236.636719 L 152.394531 222.597656 L 166.433594 222.597656 L 166.433594 236.636719 " fill-opacity="1" fill-rule="nonzero"/><path fill="#606060" d="M 166.433594 250.675781 L 152.394531 250.675781 L 152.394531 236.636719 L 166.433594 236.636719 L 166.433594 250.675781 " fill-opacity="1" fill-rule="nonzero"/><path fill="#606060" d="M 166.433594 264.71875 L 152.394531 264.71875 L 152.394531 250.675781 L 166.433594 250.675781 L 166.433594 264.71875 " fill-opacity="1" fill-rule="nonzero"/><path fill="#606060" d="M 166.433594 278.757812 L 152.394531 278.757812 L 152.394531 264.71875 L 166.433594 264.71875 L 166.433594 278.757812 " fill-opacity="1" fill-rule="nonzero"/><path fill="#606060" d="M 180.472656 278.757812 L 166.433594 278.757812 L 166.433594 264.71875 L 180.472656 264.71875 L 180.472656 278.757812 " fill-opacity="1" fill-rule="nonzero"/><path fill="#606060" d="M 180.472656 292.796875 L 166.433594 292.796875 L 166.433594 278.757812 L 180.472656 278.757812 L 180.472656 292.796875 " fill-opacity="1" fill-rule="nonzero"/><path fill="#606060" d="M 180.472656 306.839844 L 166.433594 306.839844 L 166.433594 292.796875 L 180.472656 292.796875 L 180.472656 306.839844 " fill-opacity="1" fill-rule="nonzero"/><path fill="#606060" d="M 180.472656 250.675781 L 166.433594 250.675781 L 166.433594 236.636719 L 180.472656 236.636719 L 180.472656 250.675781 " fill-opacity="1" fill-rule="nonzero"/><path fill="#606060" d="M 194.511719 250.675781 L 180.472656 250.675781 L 180.472656 236.636719 L 194.511719 236.636719 L 194.511719 250.675781 " fill-opacity="1" fill-rule="nonzero"/><path fill="#606060" d="M 208.550781 236.636719 L 194.511719 236.636719 L 194.511719 222.597656 L 208.550781 222.597656 L 208.550781 236.636719 " fill-opacity="1" fill-rule="nonzero"/><path fill="#606060" d="M 208.550781 222.597656 L 194.511719 222.597656 L 194.511719 208.558594 L 208.550781 208.558594 L 208.550781 222.597656 " fill-opacity="1" fill-rule="nonzero"/><path fill="#606060" d="M 194.511719 208.558594 L 180.472656 208.558594 L 180.472656 194.519531 L 194.511719 194.519531 L 194.511719 208.558594 " fill-opacity="1" fill-rule="nonzero"/><path fill="#606060" d="M 194.511719 194.519531 L 180.472656 194.519531 L 180.472656 180.480469 L 194.511719 180.480469 L 194.511719 194.519531 " fill-opacity="1" fill-rule="nonzero"/><path fill="#606060" d="M 194.511719 180.480469 L 180.472656 180.480469 L 180.472656 166.441406 L 194.511719 166.441406 L 194.511719 180.480469 " fill-opacity="1" fill-rule="nonzero"/><path fill="#606060" d="M 208.550781 166.441406 L 194.511719 166.441406 L 194.511719 152.398438 L 208.550781 152.398438 L 208.550781 166.441406 " fill-opacity="1" fill-rule="nonzero"/><path fill="#606060" d="M 222.59375 166.441406 L 208.550781 166.441406 L 208.550781 152.398438 L 222.59375 152.398438 L 222.59375 166.441406 " fill-opacity="1" fill-rule="nonzero"/><path fill="#606060" d="M 236.628906 166.441406 L 222.59375 166.441406 L 222.59375 152.398438 L 236.628906 152.398438 L 236.628906 166.441406 " fill-opacity="1" fill-rule="nonzero"/><path fill="#606060" d="M 222.59375 180.480469 L 208.550781 180.480469 L 208.550781 166.441406 L 222.59375 166.441406 L 222.59375 180.480469 " fill-opacity="1" fill-rule="nonzero"/><path fill="#606060" d="M 222.59375 194.519531 L 208.550781 194.519531 L 208.550781 180.480469 L 222.59375 180.480469 L 222.59375 194.519531 " fill-opacity="1" fill-rule="nonzero"/><path fill="#606060" d="M 222.59375 208.558594 L 208.550781 208.558594 L 208.550781 194.519531 L 222.59375 194.519531 L 222.59375 208.558594 " fill-opacity="1" fill-rule="nonzero"/><path fill="#606060" d="M 236.628906 222.597656 L 222.59375 222.597656 L 222.59375 208.558594 L 236.628906 208.558594 L 236.628906 222.597656 " fill-opacity="1" fill-rule="nonzero"/><path fill="#606060" d="M 250.671875 222.597656 L 236.628906 222.597656 L 236.628906 208.558594 L 250.671875 208.558594 L 250.671875 222.597656 " fill-opacity="1" fill-rule="nonzero"/><path fill="#606060" d="M 264.710938 222.597656 L 250.671875 222.597656 L 250.671875 208.558594 L 264.710938 208.558594 L 264.710938 222.597656 " fill-opacity="1" fill-rule="nonzero"/><path fill="#606060" d="M 250.671875 236.636719 L 236.628906 236.636719 L 236.628906 222.597656 L 250.671875 222.597656 L 250.671875 236.636719 " fill-opacity="1" fill-rule="nonzero"/><path fill="#606060" d="M 264.710938 208.558594 L 250.671875 208.558594 L 250.671875 194.519531 L 264.710938 194.519531 L 264.710938 208.558594 " fill-opacity="1" fill-rule="nonzero"/><path fill="#606060" d="M 264.710938 194.519531 L 250.671875 194.519531 L 250.671875 180.480469 L 264.710938 180.480469 L 264.710938 194.519531 " fill-opacity="1" fill-rule="nonzero"/><path fill="#606060" d="M 264.710938 180.480469 L 250.671875 180.480469 L 250.671875 166.441406 L 264.710938 166.441406 L 264.710938 180.480469 " fill-opacity="1" fill-rule="nonzero"/><path fill="#606060" d="M 292.792969 194.519531 L 278.75 194.519531 L 278.75 180.480469 L 292.792969 180.480469 L 292.792969 194.519531 " fill-opacity="1" fill-rule="nonzero"/><path fill="#606060" d="M 292.792969 208.558594 L 278.75 208.558594 L 278.75 194.519531 L 292.792969 194.519531 L 292.792969 208.558594 " fill-opacity="1" fill-rule="nonzero"/><path fill="#606060" d="M 278.75 208.558594 L 264.710938 208.558594 L 264.710938 194.519531 L 278.75 194.519531 L 278.75 208.558594 " fill-opacity="1" fill-rule="nonzero"/><path fill="#606060" d="M 306.828125 180.480469 L 292.792969 180.480469 L 292.792969 166.441406 L 306.828125 166.441406 L 306.828125 180.480469 " fill-opacity="1" fill-rule="nonzero"/><path fill="#606060" d="M 306.828125 166.441406 L 292.792969 166.441406 L 292.792969 152.398438 L 306.828125 152.398438 L 306.828125 166.441406 " fill-opacity="1" fill-rule="nonzero"/><path fill="#606060" d="M 320.867188 166.441406 L 306.828125 166.441406 L 306.828125 152.398438 L 320.867188 152.398438 L 320.867188 166.441406 " fill-opacity="1" fill-rule="nonzero"/><path fill="#606060" d="M 334.910156 166.441406 L 320.867188 166.441406 L 320.867188 152.398438 L 334.910156 152.398438 L 334.910156 166.441406 " fill-opacity="1" fill-rule="nonzero"/><path fill="#606060" d="M 334.910156 180.480469 L 320.867188 180.480469 L 320.867188 166.441406 L 334.910156 166.441406 L 334.910156 180.480469 " fill-opacity="1" fill-rule="nonzero"/><path fill="#606060" d="M 334.910156 194.519531 L 320.867188 194.519531 L 320.867188 180.480469 L 334.910156 180.480469 L 334.910156 194.519531 " fill-opacity="1" fill-rule="nonzero"/><path fill="#606060" d="M 334.910156 208.558594 L 320.867188 208.558594 L 320.867188 194.519531 L 334.910156 194.519531 L 334.910156 208.558594 " fill-opacity="1" fill-rule="nonzero"/><path fill="#606060" d="M 334.910156 222.597656 L 320.867188 222.597656 L 320.867188 208.558594 L 334.910156 208.558594 L 334.910156 222.597656 " fill-opacity="1" fill-rule="nonzero"/><path fill="#606060" d="M 320.867188 222.597656 L 306.828125 222.597656 L 306.828125 208.558594 L 320.867188 208.558594 L 320.867188 222.597656 " fill-opacity="1" fill-rule="nonzero"/><path fill="#606060" d="M 320.867188 236.636719 L 306.828125 236.636719 L 306.828125 222.597656 L 320.867188 222.597656 L 320.867188 236.636719 " fill-opacity="1" fill-rule="nonzero"/><path fill="#606060" d="M 306.828125 236.636719 L 292.792969 236.636719 L 292.792969 222.597656 L 306.828125 222.597656 L 306.828125 236.636719 " fill-opacity="1" fill-rule="nonzero"/><path fill="#606060" d="M 292.792969 236.636719 L 278.75 236.636719 L 278.75 222.597656 L 292.792969 222.597656 L 292.792969 236.636719 " fill-opacity="1" fill-rule="nonzero"/><path fill="#606060" d="M 292.792969 250.675781 L 278.75 250.675781 L 278.75 236.636719 L 292.792969 236.636719 L 292.792969 250.675781 " fill-opacity="1" fill-rule="nonzero"/><path fill="#606060" d="M 278.75 250.675781 L 264.710938 250.675781 L 264.710938 236.636719 L 278.75 236.636719 L 278.75 250.675781 " fill-opacity="1" fill-rule="nonzero"/><path fill="#606060" d="M 278.75 264.71875 L 264.710938 264.71875 L 264.710938 250.675781 L 278.75 250.675781 L 278.75 264.71875 " fill-opacity="1" fill-rule="nonzero"/><path fill="#606060" d="M 278.75 278.757812 L 264.710938 278.757812 L 264.710938 264.71875 L 278.75 264.71875 L 278.75 278.757812 " fill-opacity="1" fill-rule="nonzero"/><path fill="#606060" d="M 264.710938 278.757812 L 250.671875 278.757812 L 250.671875 264.71875 L 264.710938 264.71875 L 264.710938 278.757812 " fill-opacity="1" fill-rule="nonzero"/><path fill="#606060" d="M 264.710938 292.796875 L 250.671875 292.796875 L 250.671875 278.757812 L 264.710938 278.757812 L 264.710938 292.796875 " fill-opacity="1" fill-rule="nonzero"/><path fill="#606060" d="M 264.710938 306.839844 L 250.671875 306.839844 L 250.671875 292.796875 L 264.710938 292.796875 L 264.710938 306.839844 " fill-opacity="1" fill-rule="nonzero"/><path fill="#606060" d="M 264.710938 320.875 L 250.671875 320.875 L 250.671875 306.839844 L 264.710938 306.839844 L 264.710938 320.875 " fill-opacity="1" fill-rule="nonzero"/><path fill="#606060" d="M 264.710938 334.914062 L 250.671875 334.914062 L 250.671875 320.875 L 264.710938 320.875 L 264.710938 334.914062 " fill-opacity="1" fill-rule="nonzero"/><path fill="#606060" d="M 250.671875 334.914062 L 236.628906 334.914062 L 236.628906 320.875 L 250.671875 320.875 L 250.671875 334.914062 " fill-opacity="1" fill-rule="nonzero"/><path fill="#606060" d="M 236.628906 334.914062 L 222.59375 334.914062 L 222.59375 320.875 L 236.628906 320.875 L 236.628906 334.914062 " fill-opacity="1" fill-rule="nonzero"/><path fill="#606060" d="M 236.628906 320.875 L 222.59375 320.875 L 222.59375 306.839844 L 236.628906 306.839844 L 236.628906 320.875 " fill-opacity="1" fill-rule="nonzero"/><path fill="#606060" d="M 236.628906 306.839844 L 222.59375 306.839844 L 222.59375 292.796875 L 236.628906 292.796875 L 236.628906 306.839844 " fill-opacity="1" fill-rule="nonzero"/><path fill="#606060" d="M 250.671875 306.839844 L 236.628906 306.839844 L 236.628906 292.796875 L 250.671875 292.796875 L 250.671875 306.839844 " fill-opacity="1" fill-rule="nonzero"/><path fill="#606060" d="M 236.628906 292.796875 L 222.59375 292.796875 L 222.59375 278.757812 L 236.628906 278.757812 L 236.628906 292.796875 " fill-opacity="1" fill-rule="nonzero"/><path fill="#606060" d="M 236.628906 278.757812 L 222.59375 278.757812 L 222.59375 264.71875 L 236.628906 264.71875 L 236.628906 278.757812 " fill-opacity="1" fill-rule="nonzero"/><path fill="#606060" d="M 250.671875 264.71875 L 236.628906 264.71875 L 236.628906 250.675781 L 250.671875 250.675781 L 250.671875 264.71875 " fill-opacity="1" fill-rule="nonzero"/><path fill="#606060" d="M 222.59375 250.675781 L 208.550781 250.675781 L 208.550781 236.636719 L 222.59375 236.636719 L 222.59375 250.675781 " fill-opacity="1" fill-rule="nonzero"/><path fill="#606060" d="M 222.59375 278.757812 L 208.550781 278.757812 L 208.550781 264.71875 L 222.59375 264.71875 L 222.59375 278.757812 " fill-opacity="1" fill-rule="nonzero"/><path fill="#606060" d="M 208.550781 292.796875 L 194.511719 292.796875 L 194.511719 278.757812 L 208.550781 278.757812 L 208.550781 292.796875 " fill-opacity="1" fill-rule="nonzero"/><path fill="#606060" d="M 208.550781 306.839844 L 194.511719 306.839844 L 194.511719 292.796875 L 208.550781 292.796875 L 208.550781 306.839844 " fill-opacity="1" fill-rule="nonzero"/><path fill="#606060" d="M 208.550781 320.875 L 194.511719 320.875 L 194.511719 306.839844 L 208.550781 306.839844 L 208.550781 320.875 " fill-opacity="1" fill-rule="nonzero"/><path fill="#606060" d="M 208.550781 334.914062 L 194.511719 334.914062 L 194.511719 320.875 L 208.550781 320.875 L 208.550781 334.914062 " fill-opacity="1" fill-rule="nonzero"/><path fill="#606060" d="M 222.59375 320.875 L 208.550781 320.875 L 208.550781 306.839844 L 222.59375 306.839844 L 222.59375 320.875 " fill-opacity="1" fill-rule="nonzero"/><path fill="#606060" d="M 194.511719 320.875 L 180.472656 320.875 L 180.472656 306.839844 L 194.511719 306.839844 L 194.511719 320.875 " fill-opacity="1" fill-rule="nonzero"/><path fill="#606060" d="M 166.433594 320.875 L 152.394531 320.875 L 152.394531 306.839844 L 166.433594 306.839844 L 166.433594 320.875 " fill-opacity="1" fill-rule="nonzero"/><path fill="#606060" d="M 166.433594 334.914062 L 152.394531 334.914062 L 152.394531 320.875 L 166.433594 320.875 L 166.433594 334.914062 " fill-opacity="1" fill-rule="nonzero"/><path fill="#606060" d="M 180.472656 334.914062 L 166.433594 334.914062 L 166.433594 320.875 L 180.472656 320.875 L 180.472656 334.914062 " fill-opacity="1" fill-rule="nonzero"/><path fill="#606060" d="M 278.75 320.875 L 264.710938 320.875 L 264.710938 306.839844 L 278.75 306.839844 L 278.75 320.875 " fill-opacity="1" fill-rule="nonzero"/><path fill="#606060" d="M 292.792969 320.875 L 278.75 320.875 L 278.75 306.839844 L 292.792969 306.839844 L 292.792969 320.875 " fill-opacity="1" fill-rule="nonzero"/><path fill="#606060" d="M 306.828125 320.875 L 292.792969 320.875 L 292.792969 306.839844 L 306.828125 306.839844 L 306.828125 320.875 " fill-opacity="1" fill-rule="nonzero"/><path fill="#606060" d="M 320.867188 320.875 L 306.828125 320.875 L 306.828125 306.839844 L 320.867188 306.839844 L 320.867188 320.875 " fill-opacity="1" fill-rule="nonzero"/><path fill="#606060" d="M 320.867188 306.839844 L 306.828125 306.839844 L 306.828125 292.796875 L 320.867188 292.796875 L 320.867188 306.839844 " fill-opacity="1" fill-rule="nonzero"/><path fill="#606060" d="M 306.828125 306.839844 L 292.792969 306.839844 L 292.792969 292.796875 L 306.828125 292.796875 L 306.828125 306.839844 " fill-opacity="1" fill-rule="nonzero"/><path fill="#606060" d="M 306.828125 334.914062 L 292.792969 334.914062 L 292.792969 320.875 L 306.828125 320.875 L 306.828125 334.914062 " fill-opacity="1" fill-rule="nonzero"/><path fill="#606060" d="M 320.867188 334.914062 L 306.828125 334.914062 L 306.828125 320.875 L 320.867188 320.875 L 320.867188 334.914062 " fill-opacity="1" fill-rule="nonzero"/><path fill="#606060" d="M 334.910156 320.875 L 320.867188 320.875 L 320.867188 306.839844 L 334.910156 306.839844 L 334.910156 320.875 " fill-opacity="1" fill-rule="nonzero"/><path fill="#606060" d="M 320.867188 292.796875 L 306.828125 292.796875 L 306.828125 278.757812 L 320.867188 278.757812 L 320.867188 292.796875 " fill-opacity="1" fill-rule="nonzero"/><path fill="#606060" d="M 320.867188 278.757812 L 306.828125 278.757812 L 306.828125 264.71875 L 320.867188 264.71875 L 320.867188 278.757812 " fill-opacity="1" fill-rule="nonzero"/><path fill="#606060" d="M 334.910156 278.757812 L 320.867188 278.757812 L 320.867188 264.71875 L 334.910156 264.71875 L 334.910156 278.757812 " fill-opacity="1" fill-rule="nonzero"/><path fill="#606060" d="M 334.910156 264.71875 L 320.867188 264.71875 L 320.867188 250.675781 L 334.910156 250.675781 L 334.910156 264.71875 " fill-opacity="1" fill-rule="nonzero"/><path fill="#606060" d="M 334.910156 250.675781 L 320.867188 250.675781 L 320.867188 236.636719 L 334.910156 236.636719 L 334.910156 250.675781 " fill-opacity="1" fill-rule="nonzero"/><path fill="#606060" d="M 292.792969 278.757812 L 278.75 278.757812 L 278.75 264.71875 L 292.792969 264.71875 L 292.792969 278.757812 " fill-opacity="1" fill-rule="nonzero"/><path fill="#606060" d="M 292.792969 292.796875 L 278.75 292.796875 L 278.75 278.757812 L 292.792969 278.757812 L 292.792969 292.796875 " fill-opacity="1" fill-rule="nonzero"/><path fill="#606060" d="M 250.671875 194.519531 L 236.628906 194.519531 L 236.628906 180.480469 L 250.671875 180.480469 L 250.671875 194.519531 " fill-opacity="1" fill-rule="nonzero"/><path fill="#606060" d="M 236.628906 194.519531 L 222.59375 194.519531 L 222.59375 180.480469 L 236.628906 180.480469 L 236.628906 194.519531 " fill-opacity="1" fill-rule="nonzero"/><path fill="#606060" d="M 222.59375 138.359375 L 208.550781 138.359375 L 208.550781 124.320312 L 222.59375 124.320312 L 222.59375 138.359375 " fill-opacity="1" fill-rule="nonzero"/><path fill="#606060" d="M 208.550781 124.320312 L 194.511719 124.320312 L 194.511719 110.28125 L 208.550781 110.28125 L 208.550781 124.320312 " fill-opacity="1" fill-rule="nonzero"/><path fill="#606060" d="M 194.511719 124.320312 L 180.472656 124.320312 L 180.472656 110.28125 L 194.511719 110.28125 L 194.511719 124.320312 " fill-opacity="1" fill-rule="nonzero"/><path fill="#606060" d="M 180.472656 124.320312 L 166.433594 124.320312 L 166.433594 110.28125 L 180.472656 110.28125 L 180.472656 124.320312 " fill-opacity="1" fill-rule="nonzero"/><path fill="#606060" d="M 180.472656 110.28125 L 166.433594 110.28125 L 166.433594 96.238281 L 180.472656 96.238281 L 180.472656 110.28125 " fill-opacity="1" fill-rule="nonzero"/><path fill="#606060" d="M 208.550781 110.28125 L 194.511719 110.28125 L 194.511719 96.238281 L 208.550781 96.238281 L 208.550781 110.28125 " fill-opacity="1" fill-rule="nonzero"/><path fill="#606060" d="M 222.59375 110.28125 L 208.550781 110.28125 L 208.550781 96.238281 L 222.59375 96.238281 L 222.59375 110.28125 " fill-opacity="1" fill-rule="nonzero"/><path fill="#606060" d="M 222.59375 96.238281 L 208.550781 96.238281 L 208.550781 82.199219 L 222.59375 82.199219 L 222.59375 96.238281 " fill-opacity="1" fill-rule="nonzero"/><path fill="#606060" d="M 222.59375 68.160156 L 208.550781 68.160156 L 208.550781 54.121094 L 222.59375 54.121094 L 222.59375 68.160156 " fill-opacity="1" fill-rule="nonzero"/><path fill="#606060" d="M 222.59375 54.121094 L 208.550781 54.121094 L 208.550781 40.082031 L 222.59375 40.082031 L 222.59375 54.121094 " fill-opacity="1" fill-rule="nonzero"/><path fill="#606060" d="M 194.511719 54.121094 L 180.472656 54.121094 L 180.472656 40.082031 L 194.511719 40.082031 L 194.511719 54.121094 " fill-opacity="1" fill-rule="nonzero"/><path fill="#606060" d="M 194.511719 68.160156 L 180.472656 68.160156 L 180.472656 54.121094 L 194.511719 54.121094 L 194.511719 68.160156 " fill-opacity="1" fill-rule="nonzero"/><path fill="#606060" d="M 194.511719 82.199219 L 180.472656 82.199219 L 180.472656 68.160156 L 194.511719 68.160156 L 194.511719 82.199219 " fill-opacity="1" fill-rule="nonzero"/><path fill="#606060" d="M 166.433594 82.199219 L 152.394531 82.199219 L 152.394531 68.160156 L 166.433594 68.160156 L 166.433594 82.199219 " fill-opacity="1" fill-rule="nonzero"/><path fill="#606060" d="M 166.433594 96.238281 L 152.394531 96.238281 L 152.394531 82.199219 L 166.433594 82.199219 L 166.433594 96.238281 " fill-opacity="1" fill-rule="nonzero"/><path fill="#606060" d="M 166.433594 138.359375 L 152.394531 138.359375 L 152.394531 124.320312 L 166.433594 124.320312 L 166.433594 138.359375 " fill-opacity="1" fill-rule="nonzero"/><path fill="#606060" d="M 166.433594 152.398438 L 152.394531 152.398438 L 152.394531 138.359375 L 166.433594 138.359375 L 166.433594 152.398438 " fill-opacity="1" fill-rule="nonzero"/><path fill="#606060" d="M 194.511719 152.398438 L 180.472656 152.398438 L 180.472656 138.359375 L 194.511719 138.359375 L 194.511719 152.398438 " fill-opacity="1" fill-rule="nonzero"/><path fill="#606060" d="M 208.550781 152.398438 L 194.511719 152.398438 L 194.511719 138.359375 L 208.550781 138.359375 L 208.550781 152.398438 " fill-opacity="1" fill-rule="nonzero"/><path fill="#606060" d="M 152.394531 222.597656 L 138.355469 222.597656 L 138.355469 208.558594 L 152.394531 208.558594 L 152.394531 222.597656 " fill-opacity="1" fill-rule="nonzero"/><path fill="#606060" d="M 138.355469 222.597656 L 124.3125 222.597656 L 124.3125 208.558594 L 138.355469 208.558594 L 138.355469 222.597656 " fill-opacity="1" fill-rule="nonzero"/><path fill="#606060" d="M 124.3125 208.558594 L 110.273438 208.558594 L 110.273438 194.519531 L 124.3125 194.519531 L 124.3125 208.558594 " fill-opacity="1" fill-rule="nonzero"/><path fill="#606060" d="M 110.273438 208.558594 L 96.234375 208.558594 L 96.234375 194.519531 L 110.273438 194.519531 L 110.273438 208.558594 " fill-opacity="1" fill-rule="nonzero"/><path fill="#606060" d="M 96.234375 208.558594 L 82.195312 208.558594 L 82.195312 194.519531 L 96.234375 194.519531 L 96.234375 208.558594 " fill-opacity="1" fill-rule="nonzero"/><path fill="#606060" d="M 82.195312 208.558594 L 68.15625 208.558594 L 68.15625 194.519531 L 82.195312 194.519531 L 82.195312 208.558594 " fill-opacity="1" fill-rule="nonzero"/><path fill="#606060" d="M 68.15625 194.519531 L 54.117188 194.519531 L 54.117188 180.480469 L 68.15625 180.480469 L 68.15625 194.519531 " fill-opacity="1" fill-rule="nonzero"/><path fill="#606060" d="M 68.15625 222.597656 L 54.117188 222.597656 L 54.117188 208.558594 L 68.15625 208.558594 L 68.15625 222.597656 " fill-opacity="1" fill-rule="nonzero"/><path fill="#606060" d="M 54.117188 222.597656 L 40.074219 222.597656 L 40.074219 208.558594 L 54.117188 208.558594 L 54.117188 222.597656 " fill-opacity="1" fill-rule="nonzero"/><path fill="#606060" d="M 54.117188 194.519531 L 40.074219 194.519531 L 40.074219 180.480469 L 54.117188 180.480469 L 54.117188 194.519531 " fill-opacity="1" fill-rule="nonzero"/><path fill="#606060" d="M 54.117188 180.480469 L 40.074219 180.480469 L 40.074219 166.441406 L 54.117188 166.441406 L 54.117188 180.480469 " fill-opacity="1" fill-rule="nonzero"/><path fill="#f6ba67" d="M 13.277344 80.605469 C 5.949219 80.605469 0 74.660156 0 67.328125 L 0 24.765625 C 0 11.109375 11.109375 0 24.761719 0 L 67.328125 0 C 74.660156 0 80.605469 5.945312 80.605469 13.277344 C 80.605469 20.609375 74.660156 26.550781 67.328125 26.550781 L 26.550781 26.550781 L 26.550781 67.328125 C 26.550781 74.660156 20.609375 80.605469 13.277344 80.605469 " fill-opacity="1" fill-rule="nonzero"/><g clip-path="url(#773e26994d)"><path fill="#f6ba67" d="M 361.722656 80.605469 C 354.390625 80.605469 348.445312 74.660156 348.445312 67.328125 L 348.445312 26.550781 L 307.667969 26.550781 C 300.335938 26.550781 294.394531 20.609375 294.394531 13.277344 C 294.394531 5.945312 300.335938 0 307.667969 0 L 350.230469 0 C 363.886719 0 374.996094 11.109375 374.996094 24.765625 L 374.996094 67.328125 C 374.996094 74.660156 369.050781 80.605469 361.722656 80.605469 " fill-opacity="1" fill-rule="nonzero"/></g><path fill="#f6ba67" d="M 67.328125 375 L 24.761719 375 C 11.109375 375 0 363.890625 0 350.234375 L 0 307.671875 C 0 300.339844 5.949219 294.394531 13.277344 294.394531 C 20.609375 294.394531 26.550781 300.339844 26.550781 307.671875 L 26.550781 348.449219 L 67.328125 348.449219 C 74.660156 348.449219 80.605469 354.390625 80.605469 361.722656 C 80.605469 369.058594 74.660156 375 67.328125 375 " fill-opacity="1" fill-rule="nonzero"/><g clip-path="url(#befa81157a)"><path fill="#f6ba67" d="M 350.230469 375 L 307.667969 375 C 300.335938 375 294.394531 369.058594 294.394531 361.722656 C 294.394531 354.390625 300.335938 348.449219 307.667969 348.449219 L 348.445312 348.449219 L 348.445312 307.671875 C 348.445312 300.339844 354.390625 294.394531 361.722656 294.394531 C 369.050781 294.394531 374.996094 300.339844 374.996094 307.671875 L 374.996094 350.234375 C 374.996094 363.890625 363.886719 375 350.230469 375 " fill-opacity="1" fill-rule="nonzero"/></g></svg>