<svg xmlns="http://www.w3.org/2000/svg" xmlns:xlink="http://www.w3.org/1999/xlink" width="500" zoomAndPan="magnify" viewBox="0 0 375 374.999991" height="500" preserveAspectRatio="xMidYMid meet" version="1.0"><path d="M 187.5 0 C 184.429688 0 181.363281 0.0742188 178.300781 0.226562 C 175.234375 0.375 172.175781 0.601562 169.121094 0.902344 C 166.066406 1.203125 163.023438 1.578125 159.988281 2.03125 C 156.953125 2.480469 153.929688 3.003906 150.921875 3.601562 C 147.910156 4.203125 144.917969 4.875 141.941406 5.617188 C 138.964844 6.363281 136.007812 7.183594 133.070312 8.074219 C 130.136719 8.964844 127.222656 9.925781 124.332031 10.960938 C 121.445312 11.996094 118.582031 13.097656 115.746094 14.273438 C 112.910156 15.445312 110.105469 16.691406 107.332031 18.003906 C 104.558594 19.3125 101.820312 20.691406 99.113281 22.140625 C 96.40625 23.585938 93.738281 25.097656 91.105469 26.675781 C 88.472656 28.253906 85.882812 29.894531 83.332031 31.597656 C 80.777344 33.304688 78.269531 35.070312 75.804688 36.898438 C 73.339844 38.726562 70.921875 40.613281 68.550781 42.558594 C 66.179688 44.507812 63.855469 46.511719 61.582031 48.570312 C 59.308594 50.632812 57.085938 52.746094 54.917969 54.917969 C 52.746094 57.085938 50.632812 59.308594 48.570312 61.582031 C 46.511719 63.855469 44.507812 66.179688 42.558594 68.550781 C 40.613281 70.921875 38.726562 73.339844 36.898438 75.804688 C 35.070312 78.269531 33.304688 80.777344 31.597656 83.332031 C 29.894531 85.882812 28.253906 88.472656 26.675781 91.105469 C 25.097656 93.738281 23.585938 96.40625 22.140625 99.113281 C 20.691406 101.820312 19.3125 104.558594 18.003906 107.332031 C 16.691406 110.105469 15.445312 112.910156 14.273438 115.746094 C 13.097656 118.582031 11.996094 121.445312 10.960938 124.332031 C 9.925781 127.222656 8.964844 130.136719 8.074219 133.070312 C 7.183594 136.007812 6.363281 138.964844 5.617188 141.941406 C 4.875 144.917969 4.203125 147.910156 3.601562 150.921875 C 3.003906 153.929688 2.480469 156.953125 2.03125 159.988281 C 1.578125 163.023438 1.203125 166.066406 0.902344 169.121094 C 0.601562 172.175781 0.375 175.234375 0.226562 178.300781 C 0.0742188 181.363281 0 184.429688 0 187.5 C 0 190.570312 0.0742188 193.636719 0.226562 196.699219 C 0.375 199.765625 0.601562 202.824219 0.902344 205.878906 C 1.203125 208.933594 1.578125 211.976562 2.03125 215.011719 C 2.480469 218.046875 3.003906 221.070312 3.601562 224.078125 C 4.203125 227.089844 4.875 230.082031 5.617188 233.058594 C 6.363281 236.035156 7.183594 238.992188 8.074219 241.929688 C 8.964844 244.863281 9.925781 247.777344 10.960938 250.667969 C 11.996094 253.554688 13.097656 256.417969 14.273438 259.253906 C 15.445312 262.089844 16.691406 264.890625 18.003906 267.667969 C 19.3125 270.441406 20.691406 273.179688 22.140625 275.886719 C 23.585938 278.59375 25.097656 281.261719 26.675781 283.894531 C 28.253906 286.527344 29.894531 289.117188 31.597656 291.667969 C 33.304688 294.222656 35.070312 296.730469 36.898438 299.195312 C 38.726562 301.660156 40.613281 304.078125 42.558594 306.449219 C 44.507812 308.820312 46.511719 311.144531 48.570312 313.417969 C 50.632812 315.691406 52.746094 317.914062 54.917969 320.082031 C 57.085938 322.253906 59.308594 324.367188 61.582031 326.429688 C 63.855469 328.488281 66.179688 330.492188 68.550781 332.4375 C 70.921875 334.386719 73.339844 336.273438 75.804688 338.101562 C 78.269531 339.929688 80.777344 341.695312 83.332031 343.402344 C 85.882812 345.105469 88.472656 346.746094 91.105469 348.324219 C 93.738281 349.902344 96.40625 351.414062 99.113281 352.859375 C 101.820312 354.308594 104.558594 355.6875 107.332031 356.996094 C 110.105469 358.308594 112.910156 359.554688 115.746094 360.726562 C 118.582031 361.902344 121.445312 363.003906 124.332031 364.039062 C 127.222656 365.074219 130.136719 366.035156 133.070312 366.925781 C 136.007812 367.816406 138.964844 368.636719 141.941406 369.378906 C 144.917969 370.125 147.910156 370.796875 150.921875 371.398438 C 153.929688 371.996094 156.953125 372.519531 159.988281 372.96875 C 163.023438 373.421875 166.066406 373.796875 169.121094 374.097656 C 172.175781 374.398438 175.234375 374.625 178.300781 374.773438 C 181.363281 374.925781 184.429688 375 187.5 375 C 190.570312 375 193.636719 374.925781 196.699219 374.773438 C 199.765625 374.625 202.824219 374.398438 205.878906 374.097656 C 208.933594 373.796875 211.976562 373.421875 215.011719 372.96875 C 218.046875 372.519531 221.070312 371.996094 224.078125 371.398438 C 227.089844 370.796875 230.082031 370.125 233.058594 369.378906 C 236.035156 368.636719 238.992188 367.816406 241.929688 366.925781 C 244.863281 366.035156 247.777344 365.074219 250.667969 364.039062 C 253.554688 363.003906 256.417969 361.902344 259.253906 360.726562 C 262.089844 359.554688 264.890625 358.308594 267.667969 356.996094 C 270.441406 355.6875 273.179688 354.308594 275.886719 352.859375 C 278.59375 351.414062 281.261719 349.902344 283.894531 348.324219 C 286.527344 346.746094 289.117188 345.105469 291.667969 343.402344 C 294.222656 341.695312 296.730469 339.929688 299.195312 338.101562 C 301.660156 336.273438 304.078125 334.386719 306.449219 332.4375 C 308.820312 330.492188 311.144531 328.488281 313.417969 326.429688 C 315.691406 324.367188 317.914062 322.253906 320.082031 320.082031 C 322.253906 317.914062 324.367188 315.691406 326.429688 313.417969 C 328.488281 311.144531 330.492188 308.820312 332.4375 306.449219 C 334.386719 304.078125 336.273438 301.660156 338.101562 299.195312 C 339.929688 296.730469 341.695312 294.222656 343.402344 291.667969 C 345.105469 289.117188 346.746094 286.527344 348.324219 283.894531 C 349.902344 281.261719 351.414062 278.59375 352.859375 275.886719 C 354.308594 273.179688 355.6875 270.441406 356.996094 267.667969 C 358.308594 264.890625 359.554688 262.089844 360.726562 259.253906 C 361.902344 256.417969 363.003906 253.554688 364.039062 250.667969 C 365.074219 247.777344 366.035156 244.863281 366.925781 241.929688 C 367.816406 238.992188 368.636719 236.035156 369.378906 233.058594 C 370.125 230.082031 370.796875 227.089844 371.398438 224.078125 C 371.996094 221.070312 372.519531 218.046875 372.96875 215.011719 C 373.421875 211.976562 373.796875 208.933594 374.097656 205.878906 C 374.398438 202.824219 374.625 199.765625 374.773438 196.699219 C 374.925781 193.636719 375 190.570312 375 187.5 C 375 184.433594 374.921875 181.367188 374.769531 178.300781 C 374.617188 175.238281 374.390625 172.179688 374.089844 169.125 C 373.785156 166.070312 373.410156 163.027344 372.957031 159.992188 C 372.507812 156.957031 371.980469 153.9375 371.382812 150.925781 C 370.78125 147.917969 370.109375 144.925781 369.363281 141.949219 C 368.617188 138.972656 367.796875 136.015625 366.90625 133.082031 C 366.015625 130.144531 365.050781 127.234375 364.015625 124.34375 C 362.984375 121.457031 361.878906 118.59375 360.703125 115.761719 C 359.527344 112.925781 358.285156 110.121094 356.972656 107.347656 C 355.660156 104.574219 354.28125 101.835938 352.832031 99.132812 C 351.386719 96.425781 349.875 93.757812 348.296875 91.125 C 346.71875 88.492188 345.078125 85.902344 343.371094 83.351562 C 341.667969 80.800781 339.902344 78.292969 338.074219 75.828125 C 336.246094 73.363281 334.359375 70.945312 332.410156 68.574219 C 330.464844 66.203125 328.460938 63.882812 326.402344 61.609375 C 324.339844 59.335938 322.226562 57.113281 320.054688 54.945312 C 317.886719 52.773438 315.664062 50.660156 313.390625 48.597656 C 311.117188 46.539062 308.796875 44.535156 306.425781 42.589844 C 304.054688 40.640625 301.636719 38.753906 299.171875 36.925781 C 296.707031 35.097656 294.199219 33.332031 291.648438 31.628906 C 289.097656 29.921875 286.507812 28.28125 283.875 26.703125 C 281.242188 25.125 278.574219 23.613281 275.867188 22.167969 C 273.164062 20.71875 270.425781 19.339844 267.652344 18.027344 C 264.878906 16.714844 262.074219 15.472656 259.238281 14.296875 C 256.40625 13.121094 253.542969 12.015625 250.65625 10.984375 C 247.765625 9.949219 244.855469 8.984375 241.917969 8.09375 C 238.984375 7.203125 236.027344 6.382812 233.050781 5.636719 C 230.074219 4.890625 227.082031 4.21875 224.074219 3.617188 C 221.0625 3.019531 218.042969 2.492188 215.007812 2.042969 C 211.972656 1.589844 208.929688 1.214844 205.875 0.910156 C 202.820312 0.609375 199.761719 0.382812 196.699219 0.230469 C 193.632812 0.078125 190.566406 0 187.5 0 Z M 187.5 362.070312 C 184.644531 362.070312 181.789062 362 178.933594 361.859375 C 176.082031 361.71875 173.234375 361.507812 170.390625 361.226562 C 167.546875 360.949219 164.710938 360.597656 161.886719 360.179688 C 159.058594 359.761719 156.246094 359.273438 153.441406 358.714844 C 150.640625 358.15625 147.855469 357.53125 145.082031 356.835938 C 142.3125 356.144531 139.558594 355.382812 136.824219 354.550781 C 134.089844 353.722656 131.378906 352.828125 128.691406 351.863281 C 126 350.902344 123.335938 349.875 120.695312 348.78125 C 118.054688 347.6875 115.445312 346.53125 112.863281 345.308594 C 110.28125 344.085938 107.726562 342.804688 105.207031 341.457031 C 102.6875 340.109375 100.203125 338.703125 97.753906 337.234375 C 95.304688 335.765625 92.890625 334.234375 90.515625 332.648438 C 88.140625 331.0625 85.804688 329.417969 83.507812 327.714844 C 81.214844 326.011719 78.964844 324.257812 76.753906 322.445312 C 74.546875 320.632812 72.382812 318.765625 70.265625 316.847656 C 68.148438 314.929688 66.082031 312.960938 64.0625 310.9375 C 62.039062 308.917969 60.070312 306.851562 58.152344 304.734375 C 56.234375 302.617188 54.367188 300.453125 52.554688 298.246094 C 50.742188 296.035156 48.988281 293.785156 47.285156 291.492188 C 45.582031 289.195312 43.9375 286.859375 42.351562 284.484375 C 40.765625 282.109375 39.234375 279.695312 37.765625 277.246094 C 36.296875 274.796875 34.890625 272.3125 33.542969 269.792969 C 32.195312 267.273438 30.914062 264.71875 29.691406 262.136719 C 28.46875 259.554688 27.3125 256.945312 26.21875 254.304688 C 25.125 251.664062 24.097656 249 23.136719 246.308594 C 22.171875 243.621094 21.277344 240.910156 20.449219 238.175781 C 19.617188 235.441406 18.855469 232.6875 18.164062 229.917969 C 17.46875 227.144531 16.84375 224.359375 16.285156 221.558594 C 15.726562 218.753906 15.238281 215.941406 14.820312 213.113281 C 14.402344 210.289062 14.050781 207.453125 13.773438 204.609375 C 13.492188 201.765625 13.28125 198.917969 13.140625 196.066406 C 13 193.210938 12.929688 190.355469 12.929688 187.5 C 12.929688 184.644531 13 181.789062 13.140625 178.933594 C 13.28125 176.082031 13.492188 173.234375 13.773438 170.390625 C 14.050781 167.546875 14.402344 164.710938 14.820312 161.886719 C 15.238281 159.058594 15.726562 156.246094 16.285156 153.441406 C 16.84375 150.640625 17.46875 147.855469 18.164062 145.082031 C 18.855469 142.3125 19.617188 139.558594 20.449219 136.824219 C 21.277344 134.089844 22.171875 131.378906 23.136719 128.691406 C 24.097656 126 25.125 123.335938 26.21875 120.695312 C 27.3125 118.054688 28.46875 115.445312 29.691406 112.863281 C 30.914062 110.28125 32.195312 107.726562 33.542969 105.207031 C 34.890625 102.6875 36.296875 100.203125 37.765625 97.753906 C 39.234375 95.304688 40.765625 92.890625 42.351562 90.515625 C 43.9375 88.140625 45.582031 85.804688 47.285156 83.507812 C 48.988281 81.214844 50.742188 78.964844 52.554688 76.753906 C 54.367188 74.546875 56.234375 72.382812 58.152344 70.265625 C 60.070312 68.148438 62.039062 66.082031 64.0625 64.0625 C 66.082031 62.039062 68.148438 60.070312 70.265625 58.152344 C 72.382812 56.234375 74.546875 54.367188 76.753906 52.554688 C 78.964844 50.742188 81.214844 48.988281 83.507812 47.285156 C 85.804688 45.582031 88.140625 43.9375 90.515625 42.351562 C 92.890625 40.765625 95.304688 39.234375 97.753906 37.765625 C 100.203125 36.296875 102.6875 34.890625 105.207031 33.542969 C 107.726562 32.195312 110.28125 30.914062 112.863281 29.691406 C 115.445312 28.46875 118.054688 27.3125 120.695312 26.21875 C 123.335938 25.125 126 24.097656 128.691406 23.136719 C 131.378906 22.171875 134.089844 21.277344 136.824219 20.449219 C 139.558594 19.617188 142.3125 18.855469 145.082031 18.164062 C 147.855469 17.46875 150.640625 16.84375 153.441406 16.285156 C 156.246094 15.726562 159.058594 15.238281 161.886719 14.820312 C 164.710938 14.402344 167.546875 14.050781 170.390625 13.773438 C 173.234375 13.492188 176.082031 13.28125 178.933594 13.140625 C 181.789062 13 184.644531 12.929688 187.5 12.929688 C 190.355469 12.929688 193.210938 13 196.066406 13.140625 C 198.917969 13.28125 201.765625 13.492188 204.609375 13.773438 C 207.453125 14.050781 210.289062 14.402344 213.113281 14.820312 C 215.941406 15.238281 218.753906 15.726562 221.558594 16.285156 C 224.359375 16.84375 227.144531 17.46875 229.917969 18.164062 C 232.6875 18.855469 235.441406 19.617188 238.175781 20.449219 C 240.910156 21.277344 243.621094 22.171875 246.308594 23.136719 C 249 24.097656 251.664062 25.125 254.304688 26.21875 C 256.945312 27.3125 259.554688 28.46875 262.136719 29.691406 C 264.71875 30.914062 267.273438 32.195312 269.792969 33.542969 C 272.3125 34.890625 274.796875 36.296875 277.246094 37.765625 C 279.695312 39.234375 282.109375 40.765625 284.484375 42.351562 C 286.859375 43.9375 289.195312 45.582031 291.492188 47.285156 C 293.785156 48.988281 296.035156 50.742188 298.246094 52.554688 C 300.453125 54.367188 302.617188 56.234375 304.734375 58.152344 C 306.851562 60.070312 308.917969 62.039062 310.9375 64.0625 C 312.960938 66.082031 314.929688 68.148438 316.847656 70.265625 C 318.765625 72.382812 320.632812 74.546875 322.445312 76.753906 C 324.257812 78.964844 326.011719 81.214844 327.714844 83.507812 C 329.417969 85.804688 331.0625 88.140625 332.648438 90.515625 C 334.234375 92.890625 335.765625 95.304688 337.234375 97.753906 C 338.703125 100.203125 340.109375 102.6875 341.457031 105.207031 C 342.804688 107.726562 344.085938 110.28125 345.308594 112.863281 C 346.53125 115.445312 347.6875 118.054688 348.78125 120.695312 C 349.875 123.335938 350.902344 126 351.863281 128.691406 C 352.828125 131.378906 353.722656 134.089844 354.550781 136.824219 C 355.382812 139.558594 356.144531 142.3125 356.835938 145.082031 C 357.53125 147.855469 358.15625 150.640625 358.714844 153.441406 C 359.273438 156.246094 359.761719 159.058594 360.179688 161.886719 C 360.597656 164.710938 360.949219 167.546875 361.226562 170.390625 C 361.507812 173.234375 361.71875 176.082031 361.859375 178.933594 C 362 181.789062 362.070312 184.644531 362.070312 187.5 C 362.066406 190.355469 361.996094 193.210938 361.855469 196.066406 C 361.714844 198.917969 361.503906 201.765625 361.222656 204.609375 C 360.941406 207.449219 360.589844 210.285156 360.167969 213.109375 C 359.75 215.9375 359.261719 218.75 358.703125 221.550781 C 358.144531 224.351562 357.515625 227.140625 356.820312 229.910156 C 356.128906 232.679688 355.363281 235.433594 354.535156 238.167969 C 353.703125 240.898438 352.808594 243.609375 351.84375 246.300781 C 350.882812 248.988281 349.855469 251.652344 348.761719 254.292969 C 347.667969 256.929688 346.507812 259.542969 345.285156 262.125 C 344.066406 264.707031 342.78125 267.257812 341.433594 269.777344 C 340.085938 272.296875 338.679688 274.78125 337.210938 277.230469 C 335.742188 279.679688 334.210938 282.09375 332.625 284.46875 C 331.039062 286.84375 329.394531 289.175781 327.691406 291.472656 C 325.988281 293.765625 324.230469 296.015625 322.417969 298.222656 C 320.609375 300.433594 318.742188 302.59375 316.824219 304.710938 C 314.90625 306.828125 312.9375 308.894531 310.917969 310.917969 C 308.894531 312.9375 306.828125 314.90625 304.710938 316.824219 C 302.59375 318.742188 300.433594 320.609375 298.222656 322.417969 C 296.015625 324.230469 293.765625 325.988281 291.472656 327.691406 C 289.175781 329.394531 286.84375 331.039062 284.46875 332.625 C 282.09375 334.210938 279.679688 335.742188 277.230469 337.210938 C 274.78125 338.679688 272.296875 340.085938 269.777344 341.433594 C 267.257812 342.78125 264.707031 344.066406 262.125 345.285156 C 259.542969 346.507812 256.929688 347.667969 254.292969 348.761719 C 251.652344 349.855469 248.988281 350.882812 246.300781 351.84375 C 243.609375 352.808594 240.898438 353.703125 238.167969 354.535156 C 235.433594 355.363281 232.679688 356.128906 229.910156 356.820312 C 227.140625 357.515625 224.351562 358.144531 221.550781 358.703125 C 218.75 359.261719 215.9375 359.75 213.109375 360.167969 C 210.285156 360.589844 207.449219 360.941406 204.609375 361.222656 C 201.765625 361.503906 198.917969 361.714844 196.066406 361.855469 C 193.210938 361.996094 190.355469 362.066406 187.5 362.070312 Z M 187.5 362.070312 " fill-opacity="1" fill-rule="evenodd"/><path d="M 278.015625 90.515625 L 96.984375 90.515625 C 96.558594 90.515625 96.136719 90.558594 95.722656 90.640625 C 95.304688 90.722656 94.902344 90.847656 94.507812 91.007812 C 94.117188 91.171875 93.742188 91.371094 93.390625 91.605469 C 93.039062 91.84375 92.710938 92.109375 92.410156 92.410156 C 92.109375 92.710938 91.84375 93.039062 91.605469 93.390625 C 91.371094 93.742188 91.171875 94.117188 91.007812 94.507812 C 90.847656 94.902344 90.722656 95.304688 90.640625 95.722656 C 90.558594 96.136719 90.515625 96.558594 90.515625 96.984375 L 90.515625 157.332031 C 90.515625 157.757812 90.558594 158.175781 90.640625 158.59375 C 90.722656 159.007812 90.847656 159.414062 91.007812 159.804688 C 91.171875 160.199219 91.371094 160.570312 91.605469 160.925781 C 91.84375 161.277344 92.109375 161.601562 92.410156 161.902344 C 92.710938 162.203125 93.039062 162.472656 93.390625 162.707031 C 93.742188 162.945312 94.117188 163.144531 94.507812 163.304688 C 94.902344 163.46875 95.304688 163.589844 95.722656 163.671875 C 96.136719 163.757812 96.558594 163.796875 96.984375 163.796875 C 97.40625 163.796875 97.828125 163.757812 98.242188 163.671875 C 98.660156 163.589844 99.066406 163.46875 99.457031 163.304688 C 99.847656 163.144531 100.222656 162.945312 100.574219 162.707031 C 100.929688 162.472656 101.253906 162.203125 101.554688 161.902344 C 101.855469 161.601562 102.121094 161.277344 102.359375 160.925781 C 102.59375 160.570312 102.792969 160.199219 102.957031 159.804688 C 103.117188 159.414062 103.242188 159.007812 103.324219 158.59375 C 103.40625 158.175781 103.449219 157.757812 103.449219 157.332031 L 103.449219 103.449219 L 271.550781 103.449219 L 271.550781 157.332031 C 271.550781 157.757812 271.59375 158.175781 271.675781 158.59375 C 271.757812 159.007812 271.882812 159.414062 272.042969 159.804688 C 272.207031 160.199219 272.40625 160.570312 272.640625 160.925781 C 272.878906 161.277344 273.144531 161.601562 273.445312 161.902344 C 273.746094 162.203125 274.070312 162.472656 274.425781 162.707031 C 274.777344 162.945312 275.152344 163.144531 275.542969 163.304688 C 275.933594 163.46875 276.339844 163.589844 276.753906 163.671875 C 277.171875 163.757812 277.59375 163.796875 278.015625 163.796875 C 278.441406 163.796875 278.863281 163.757812 279.277344 163.671875 C 279.695312 163.589844 280.097656 163.46875 280.492188 163.304688 C 280.882812 163.144531 281.257812 162.945312 281.609375 162.707031 C 281.960938 162.472656 282.289062 162.203125 282.589844 161.902344 C 282.890625 161.601562 283.15625 161.277344 283.394531 160.925781 C 283.628906 160.570312 283.828125 160.199219 283.992188 159.804688 C 284.152344 159.414062 284.277344 159.007812 284.359375 158.59375 C 284.441406 158.175781 284.484375 157.757812 284.484375 157.332031 L 284.484375 96.984375 C 284.484375 96.558594 284.441406 96.136719 284.359375 95.722656 C 284.277344 95.304688 284.152344 94.902344 283.992188 94.507812 C 283.828125 94.117188 283.628906 93.742188 283.394531 93.390625 C 283.15625 93.039062 282.890625 92.710938 282.589844 92.410156 C 282.289062 92.109375 281.960938 91.84375 281.609375 91.605469 C 281.257812 91.371094 280.882812 91.171875 280.492188 91.007812 C 280.097656 90.847656 279.695312 90.722656 279.277344 90.640625 C 278.863281 90.558594 278.441406 90.515625 278.015625 90.515625 Z M 278.015625 90.515625 " fill-opacity="1" fill-rule="evenodd"/><path  d="M 278.015625 211.203125 C 277.59375 211.203125 277.171875 211.242188 276.753906 211.328125 C 276.339844 211.410156 275.933594 211.53125 275.542969 211.695312 C 275.152344 211.855469 274.777344 212.054688 274.425781 212.292969 C 274.070312 212.527344 273.746094 212.796875 273.445312 213.097656 C 273.144531 213.394531 272.878906 213.722656 272.640625 214.074219 C 272.40625 214.429688 272.207031 214.800781 272.042969 215.195312 C 271.882812 215.585938 271.757812 215.992188 271.675781 216.40625 C 271.59375 216.824219 271.550781 217.242188 271.550781 217.667969 L 271.550781 271.550781 L 103.449219 271.550781 L 103.449219 217.667969 C 103.449219 217.242188 103.40625 216.824219 103.324219 216.40625 C 103.242188 215.992188 103.117188 215.585938 102.957031 215.195312 C 102.792969 214.800781 102.59375 214.429688 102.359375 214.074219 C 102.121094 213.722656 101.855469 213.394531 101.554688 213.097656 C 101.253906 212.796875 100.929688 212.527344 100.574219 212.292969 C 100.222656 212.054688 99.847656 211.855469 99.457031 211.695312 C 99.066406 211.53125 98.660156 211.410156 98.242188 211.328125 C 97.828125 211.242188 97.40625 211.203125 96.984375 211.203125 C 96.558594 211.203125 96.136719 211.242188 95.722656 211.328125 C 95.304688 211.410156 94.902344 211.53125 94.507812 211.695312 C 94.117188 211.855469 93.742188 212.054688 93.390625 212.292969 C 93.039062 212.527344 92.710938 212.796875 92.410156 213.097656 C 92.109375 213.394531 91.84375 213.722656 91.605469 214.074219 C 91.371094 214.429688 91.171875 214.800781 91.007812 215.195312 C 90.847656 215.585938 90.722656 215.992188 90.640625 216.40625 C 90.558594 216.824219 90.515625 217.242188 90.515625 217.667969 L 90.515625 278.015625 C 90.515625 278.441406 90.558594 278.863281 90.640625 279.277344 C 90.722656 279.695312 90.847656 280.097656 91.007812 280.492188 C 91.171875 280.882812 91.371094 281.257812 91.605469 281.609375 C 91.84375 281.960938 92.109375 282.289062 92.410156 282.589844 C 92.710938 282.890625 93.039062 283.15625 93.390625 283.394531 C 93.742188 283.628906 94.117188 283.828125 94.507812 283.992188 C 94.902344 284.152344 95.304688 284.277344 95.722656 284.359375 C 96.136719 284.441406 96.558594 284.484375 96.984375 284.484375 L 278.015625 284.484375 C 278.441406 284.484375 278.863281 284.441406 279.277344 284.359375 C 279.695312 284.277344 280.097656 284.152344 280.492188 283.992188 C 280.882812 283.828125 281.257812 283.628906 281.609375 283.394531 C 281.960938 283.15625 282.289062 282.890625 282.589844 282.589844 C 282.890625 282.289062 283.15625 281.960938 283.394531 281.609375 C 283.628906 281.257812 283.828125 280.882812 283.992188 280.492188 C 284.152344 280.097656 284.277344 279.695312 284.359375 279.277344 C 284.441406 278.863281 284.484375 278.441406 284.484375 278.015625 L 284.484375 217.667969 C 284.484375 217.242188 284.441406 216.824219 284.359375 216.40625 C 284.277344 215.992188 284.152344 215.585938 283.992188 215.195312 C 283.828125 214.800781 283.628906 214.429688 283.394531 214.074219 C 283.15625 213.722656 282.890625 213.394531 282.589844 213.097656 C 282.289062 212.796875 281.960938 212.527344 281.609375 212.292969 C 281.257812 212.054688 280.882812 211.855469 280.492188 211.695312 C 280.097656 211.53125 279.695312 211.410156 279.277344 211.328125 C 278.863281 211.242188 278.441406 211.203125 278.015625 211.203125 Z M 278.015625 211.203125 " fill-opacity="1" fill-rule="evenodd"/><path  d="M 278.015625 181.035156 L 96.984375 181.035156 C 96.558594 181.035156 96.136719 181.074219 95.722656 181.160156 C 95.304688 181.242188 94.902344 181.363281 94.507812 181.527344 C 94.117188 181.6875 93.742188 181.886719 93.390625 182.125 C 93.039062 182.359375 92.710938 182.628906 92.410156 182.929688 C 92.109375 183.226562 91.84375 183.554688 91.605469 183.90625 C 91.371094 184.261719 91.171875 184.632812 91.007812 185.027344 C 90.847656 185.417969 90.722656 185.820312 90.640625 186.238281 C 90.558594 186.65625 90.515625 187.074219 90.515625 187.5 C 90.515625 187.925781 90.558594 188.34375 90.640625 188.761719 C 90.722656 189.175781 90.847656 189.582031 91.007812 189.972656 C 91.171875 190.367188 91.371094 190.738281 91.605469 191.09375 C 91.84375 191.445312 92.109375 191.773438 92.410156 192.070312 C 92.710938 192.371094 93.039062 192.640625 93.390625 192.875 C 93.742188 193.113281 94.117188 193.3125 94.507812 193.472656 C 94.902344 193.636719 95.304688 193.757812 95.722656 193.839844 C 96.136719 193.925781 96.558594 193.964844 96.984375 193.964844 L 278.015625 193.964844 C 278.441406 193.964844 278.863281 193.925781 279.277344 193.839844 C 279.695312 193.757812 280.097656 193.636719 280.492188 193.472656 C 280.882812 193.3125 281.257812 193.113281 281.609375 192.875 C 281.960938 192.640625 282.289062 192.371094 282.589844 192.070312 C 282.890625 191.773438 283.15625 191.445312 283.394531 191.09375 C 283.628906 190.738281 283.828125 190.367188 283.992188 189.972656 C 284.152344 189.582031 284.277344 189.175781 284.359375 188.761719 C 284.441406 188.34375 284.484375 187.925781 284.484375 187.5 C 284.484375 187.074219 284.441406 186.65625 284.359375 186.238281 C 284.277344 185.820312 284.152344 185.417969 283.992188 185.027344 C 283.828125 184.632812 283.628906 184.261719 283.394531 183.90625 C 283.15625 183.554688 282.890625 183.226562 282.589844 182.929688 C 282.289062 182.628906 281.960938 182.359375 281.609375 182.125 C 281.257812 181.886719 280.882812 181.6875 280.492188 181.527344 C 280.097656 181.363281 279.695312 181.242188 279.277344 181.160156 C 278.863281 181.074219 278.441406 181.035156 278.015625 181.035156 Z M 278.015625 181.035156 " fill-opacity="1" fill-rule="evenodd"/></svg>
