<svg xmlns="http://www.w3.org/2000/svg" xmlns:xlink="http://www.w3.org/1999/xlink" width="500" zoomAndPan="magnify" viewBox="0 0 375 374.999991" height="500" preserveAspectRatio="xMidYMid meet" version="1.0"><path d="M 221.941406 191.070312 L 233.929688 203.058594 L 245.914062 191.070312 L 233.929688 179.082031 L 221.941406 191.070312 " fill-opacity="1" fill-rule="nonzero"/><path d="M 196.035156 165.164062 L 208.023438 177.148438 L 220.007812 165.164062 L 208.023438 153.175781 L 196.035156 165.164062 " fill-opacity="1" fill-rule="nonzero"/><path d="M 170.125 139.257812 L 182.113281 151.242188 L 194.101562 139.257812 L 182.113281 127.269531 L 170.125 139.257812 " fill-opacity="1" fill-rule="nonzero"/><path d="M 168.195312 288.578125 L 147.640625 268.023438 C 146.867188 267.253906 146.503906 266.15625 146.640625 265.011719 C 147.847656 254.902344 144.414062 244.976562 137.21875 237.777344 C 130.972656 231.53125 122.664062 228.121094 113.964844 228.121094 C 112.644531 228.121094 111.320312 228.199219 109.984375 228.355469 C 108.84375 228.492188 107.746094 228.128906 106.976562 227.359375 L 86.417969 206.800781 L 206.804688 86.417969 L 227.359375 106.972656 C 228.132812 107.746094 228.496094 108.84375 228.355469 109.984375 C 227.148438 120.097656 230.582031 130.023438 237.777344 137.21875 C 244.972656 144.414062 254.886719 147.863281 265.011719 146.640625 C 266.15625 146.523438 267.25 146.871094 268.023438 147.636719 L 288.578125 168.199219 Z M 262.898438 128.910156 C 258.261719 129.472656 253.703125 127.890625 250.40625 124.597656 C 247.105469 121.292969 245.535156 116.746094 246.089844 112.105469 C 246.882812 105.492188 244.65625 99.023438 239.984375 94.351562 L 213.113281 67.480469 C 209.628906 63.992188 203.972656 63.992188 200.488281 67.480469 L 67.480469 200.488281 C 65.804688 202.164062 64.863281 204.433594 64.863281 206.800781 C 64.863281 209.167969 65.804688 211.441406 67.480469 213.113281 L 94.351562 239.992188 C 99.019531 244.65625 105.484375 246.871094 112.101562 246.089844 C 116.734375 245.539062 121.296875 247.105469 124.589844 250.402344 C 127.890625 253.703125 129.460938 258.253906 128.910156 262.898438 C 128.121094 269.511719 130.34375 275.980469 135.015625 280.648438 L 161.886719 307.519531 C 163.625 309.261719 165.914062 310.136719 168.195312 310.136719 C 170.480469 310.136719 172.765625 309.261719 174.507812 307.519531 L 307.519531 174.511719 C 309.195312 172.835938 310.136719 170.566406 310.136719 168.199219 C 310.136719 165.832031 309.195312 163.558594 307.519531 161.886719 L 280.648438 135.015625 C 275.980469 130.339844 269.5 128.113281 262.898438 128.910156 " fill-opacity="1" fill-rule="nonzero"/><path d="M 187.5 357.144531 C 93.957031 357.144531 17.855469 281.042969 17.855469 187.5 C 17.855469 93.957031 93.957031 17.855469 187.5 17.855469 C 281.042969 17.855469 357.144531 93.957031 357.144531 187.5 C 357.144531 281.042969 281.042969 357.144531 187.5 357.144531 Z M 187.5 0 C 84.109375 0 0 84.113281 0 187.5 C 0 290.886719 84.109375 375 187.5 375 C 290.886719 375 375 290.886719 375 187.5 C 375 84.113281 290.886719 0 187.5 0 " fill-opacity="1" fill-rule="nonzero"/></svg>
